<?xml version="1.0" encoding="UTF-8" ?>
<!DOCTYPE svg PUBLIC "-//W3C//DTD SVG 1.1//EN" "http://www.w3.org/Graphics/SVG/1.1/DTD/svg11.dtd">
<svg width="393pt" height="223pt" viewBox="0 0 393 223" version="1.1" xmlns="http://www.w3.org/2000/svg">
<g id="#ffffffff">
<path fill="#ffffff" opacity="1.00" d=" M 152.82 161.17 C 155.87 159.57 153.09 164.41 152.82 161.17 Z" />
</g>
<g id="#000000ff">
<path fill="#000000" opacity="1.00" d=" M 49.10 54.25 C 53.22 52.48 57.79 53.50 62.11 53.57 C 66.74 53.71 71.20 55.35 74.95 58.03 C 75.01 61.18 75.01 64.33 74.98 67.49 C 69.70 65.42 64.81 61.86 58.95 61.73 C 54.20 61.41 48.83 63.00 46.18 67.24 C 43.13 72.18 44.99 79.15 49.87 82.19 C 56.49 86.63 64.81 87.84 71.21 92.71 C 81.94 100.84 80.42 120.16 68.41 126.38 C 58.37 132.09 45.72 129.61 36.62 123.23 C 36.24 119.76 36.54 116.26 36.49 112.77 C 43.60 117.16 51.70 122.40 60.45 120.24 C 68.62 118.30 72.89 105.59 65.63 100.28 C 58.35 93.66 47.29 93.61 40.36 86.49 C 35.59 81.73 34.57 74.47 35.54 68.07 C 37.44 61.59 42.97 56.71 49.10 54.25 Z" />
<path fill="#000000" opacity="1.00" d=" M 171.01 54.08 C 174.55 54.05 178.10 54.00 181.63 54.35 C 197.58 75.36 213.66 96.26 229.75 117.16 C 229.69 96.22 229.80 75.29 229.69 54.35 C 232.56 54.24 235.44 54.24 238.31 54.35 C 238.24 79.11 238.23 103.88 238.31 128.65 C 235.50 128.76 232.68 128.72 229.86 128.77 C 213.03 107.80 196.57 86.52 179.52 65.73 C 179.57 86.70 179.47 107.68 179.57 128.66 C 176.72 128.75 173.87 128.73 171.02 128.75 C 170.98 103.86 171.00 78.97 171.01 54.08 Z" />
<path fill="#000000" opacity="1.00" d=" M 244.74 53.74 C 258.83 53.72 272.92 53.75 287.01 53.73 C 287.00 56.40 286.99 59.08 286.97 61.75 C 272.88 61.66 258.78 61.85 244.69 61.65 C 244.73 59.01 244.74 56.38 244.74 53.74 Z" />
<path fill="#000000" opacity="1.00" d=" M 291.26 53.76 C 312.59 53.71 333.93 53.74 355.27 53.74 C 355.25 56.50 355.25 59.26 355.26 62.02 C 346.25 62.00 337.24 61.97 328.24 62.03 C 328.25 84.27 328.33 106.51 328.20 128.76 C 325.28 128.73 322.37 128.73 319.46 128.72 C 319.48 106.48 319.45 84.24 319.48 62.00 C 310.07 61.98 300.65 62.04 291.25 61.96 C 291.27 59.23 291.26 56.49 291.26 53.76 Z" />
<path fill="#000000" opacity="1.00" d=" M 244.78 87.24 C 258.85 87.29 272.92 87.27 286.99 87.25 C 286.99 89.92 286.99 92.59 286.99 95.26 C 272.91 95.26 258.82 95.27 244.74 95.26 C 244.75 92.59 244.72 89.91 244.78 87.24 Z" />
<path fill="#000000" opacity="1.00" d=" M 244.74 120.74 C 258.82 120.73 272.91 120.74 286.99 120.74 C 286.99 123.41 286.99 126.08 286.99 128.75 C 272.92 128.73 258.85 128.71 244.78 128.76 C 244.71 126.08 244.76 123.41 244.74 120.74 Z" />
<path fill="#000000" opacity="1.00" d=" M 104.16 166.26 C 105.28 162.91 104.16 158.22 107.46 156.08 C 107.41 157.02 107.29 158.89 107.23 159.83 C 108.39 159.53 111.02 159.07 110.69 161.09 C 110.35 162.98 110.91 166.40 108.08 166.24 C 108.35 164.42 108.63 162.61 108.84 160.80 C 105.60 161.18 107.55 166.30 104.16 166.26 Z" />
<path fill="#000000" opacity="1.00" d=" M 237.17 159.19 C 237.29 157.60 238.09 156.68 239.59 156.43 C 239.10 159.81 238.47 163.17 237.73 166.50 C 236.94 165.61 236.19 164.69 235.48 163.74 L 236.64 163.53 C 236.70 162.81 236.84 161.36 236.90 160.64 C 235.10 160.97 234.38 162.57 233.88 164.13 L 235.68 164.36 C 235.48 164.93 235.09 166.07 234.89 166.65 C 232.71 166.14 231.61 163.80 232.77 161.90 C 233.40 160.00 235.51 159.70 237.17 159.19 Z" />
<path fill="#000000" opacity="1.00" d=" M 182.59 160.30 C 183.51 159.27 184.48 158.26 185.75 157.65 L 185.34 159.40 C 185.77 159.63 186.63 160.09 187.07 160.32 C 183.97 160.81 184.77 164.01 185.79 165.99 C 184.66 166.25 183.66 166.06 182.77 165.42 C 182.69 163.71 183.30 161.94 182.59 160.30 Z" />
<path fill="#000000" opacity="1.00" d=" M 114.26 165.59 C 111.27 163.12 115.80 157.29 118.84 160.17 C 120.39 161.82 117.83 164.41 116.17 162.82 C 116.48 161.95 117.12 161.29 118.06 160.82 C 115.42 160.19 115.35 162.86 115.13 164.70 C 116.07 164.66 117.95 164.59 118.89 164.55 C 118.47 166.64 115.64 166.26 114.26 165.59 Z" />
<path fill="#000000" opacity="1.00" d=" M 132.38 159.71 C 134.01 159.80 135.65 159.47 137.28 159.72 C 137.94 161.83 138.06 166.18 135.06 166.25 C 135.35 164.41 135.61 162.58 135.85 160.75 C 132.48 161.10 134.63 166.35 131.16 166.26 C 131.51 164.06 131.90 161.88 132.38 159.71 Z" />
<path fill="#000000" opacity="1.00" d=" M 159.37 159.74 C 161.06 160.02 163.39 158.85 164.60 160.32 C 164.57 162.38 165.06 166.31 162.05 166.23 C 162.35 164.44 162.62 162.64 162.88 160.84 C 159.38 160.93 161.70 166.49 158.16 166.20 C 158.52 164.03 158.93 161.88 159.37 159.74 Z" />
<path fill="#000000" opacity="1.00" d=" M 204.53 163.23 C 204.86 161.28 205.73 159.67 207.76 159.33 C 206.18 163.04 204.76 167.35 200.91 169.30 C 200.50 167.62 201.89 166.71 202.82 165.64 C 202.41 163.55 201.97 161.46 201.60 159.37 C 203.79 159.45 203.88 161.75 204.53 163.23 Z" />
<path fill="#000000" opacity="1.00" d=" M 258.24 165.57 C 255.29 163.07 259.82 157.31 262.84 160.18 C 264.37 161.81 261.81 164.43 260.17 162.82 C 260.48 161.97 261.11 161.32 262.05 160.88 C 259.31 160.06 259.45 162.86 259.13 164.71 C 260.07 164.66 261.95 164.58 262.89 164.54 C 262.49 166.66 259.61 166.26 258.24 165.57 Z" />
<path fill="#000000" opacity="1.00" d=" M 282.25 165.57 C 279.26 163.08 283.89 157.23 286.86 160.23 C 288.36 161.80 285.79 164.42 284.17 162.83 C 284.46 161.96 285.08 161.30 286.05 160.86 C 283.42 160.16 283.34 162.87 283.13 164.69 C 284.07 164.66 285.95 164.58 286.88 164.55 C 286.48 166.62 283.59 166.30 282.25 165.57 Z" />
</g>
<g id="#23d000ff">
<path fill="#23d000" opacity="1.00" d=" M 99.77 58.76 C 109.26 51.33 122.87 50.54 133.74 55.26 C 143.87 59.72 151.12 71.02 149.50 82.18 C 148.74 87.62 140.81 89.74 137.14 85.86 C 133.17 82.47 132.07 77.11 129.16 72.97 C 125.50 67.30 118.78 63.30 111.90 64.40 C 102.92 65.66 95.68 71.57 88.97 77.20 C 90.84 70.26 93.99 63.31 99.77 58.76 Z" />
<path fill="#23d000" opacity="1.00" d=" M 151.96 69.87 C 158.71 75.94 163.59 84.72 162.98 94.01 C 162.22 107.55 152.64 120.92 139.17 124.19 C 132.15 125.52 124.29 124.89 118.40 120.52 C 113.94 117.57 115.06 109.76 119.95 107.85 C 126.20 105.34 133.03 108.13 139.41 106.28 C 145.24 105.13 150.25 100.83 152.14 95.18 C 155.03 86.99 153.48 78.17 151.96 69.87 Z" />
<path fill="#23d000" opacity="1.00" d=" M 85.00 89.93 C 87.23 82.97 92.17 76.47 99.07 73.68 C 104.14 71.44 110.18 76.83 108.85 82.10 C 107.69 88.52 101.97 92.79 100.32 99.03 C 98.23 104.61 99.42 111.14 103.29 115.65 C 108.87 122.35 117.28 125.66 125.26 128.56 C 117.38 130.68 108.51 131.08 101.15 127.06 C 88.35 120.19 81.09 104.01 85.00 89.93 Z" />
<path fill="#23d000" opacity="1.00" d=" M 48.03 135.74 C 51.75 135.50 51.34 139.95 52.62 142.31 C 52.90 140.21 53.00 138.10 53.09 136.00 C 53.64 136.00 54.72 135.99 55.26 135.99 C 55.26 140.24 55.30 144.49 55.28 148.75 C 51.49 148.95 51.70 144.23 50.32 141.73 C 50.29 144.06 50.28 146.39 50.27 148.72 C 49.72 148.63 48.62 148.45 48.07 148.35 C 47.88 144.15 48.04 139.94 48.03 135.74 Z" />
</g>
<g id="#22d000ff">
<path fill="#22d000" opacity="1.00" d=" M 36.22 136.05 C 36.85 136.05 38.12 136.03 38.76 136.03 C 38.72 140.21 38.76 144.40 38.72 148.59 C 38.12 148.59 36.91 148.59 36.30 148.59 C 36.24 144.41 36.26 140.23 36.22 136.05 Z" />
<path fill="#22d000" opacity="1.00" d=" M 80.32 136.54 C 81.92 135.32 84.42 135.98 85.23 137.82 C 86.64 140.60 86.55 144.26 85.05 146.99 C 83.76 149.56 79.51 148.99 78.82 146.22 C 77.83 143.10 77.58 138.88 80.32 136.54 M 81.61 138.41 C 80.70 140.82 79.78 145.21 82.90 146.36 C 83.18 144.43 83.70 142.45 83.30 140.50 C 82.94 139.64 83.00 137.73 81.61 138.41 Z" />
<path fill="#22d000" opacity="1.00" d=" M 171.37 136.44 C 173.83 134.78 176.70 137.25 176.87 139.86 C 177.17 142.81 177.34 147.07 174.09 148.51 C 171.65 149.33 169.65 147.17 169.29 144.94 C 168.71 142.06 168.84 138.38 171.37 136.44 M 172.22 139.07 C 171.59 141.36 170.81 145.46 173.80 146.28 C 174.09 144.13 174.55 141.93 174.10 139.77 C 173.93 138.74 172.65 137.28 172.22 139.07 Z" />
<path fill="#22d000" opacity="1.00" d=" M 334.39 147.56 C 330.60 143.54 333.20 134.39 339.68 136.06 C 339.81 136.60 340.08 137.67 340.22 138.21 C 335.10 136.97 333.53 145.22 338.04 146.67 C 338.08 144.80 337.31 143.14 336.42 141.56 C 337.38 141.52 339.30 141.44 340.26 141.40 C 340.28 143.71 340.30 146.03 340.32 148.35 C 338.32 148.48 336.07 148.97 334.39 147.56 Z" />
</g>
<g id="#24cd03ff">
<path fill="#24cd03" opacity="1.00" d=" M 64.36 136.08 C 66.27 136.03 68.17 136.00 70.08 135.97 C 70.02 136.65 69.92 138.00 69.86 138.68 C 69.15 138.65 67.73 138.57 67.01 138.54 C 67.01 139.21 67.00 140.56 67.00 141.24 C 67.70 141.25 69.10 141.28 69.80 141.29 C 69.77 141.87 69.73 143.02 69.70 143.59 C 69.05 143.59 67.74 143.58 67.09 143.57 C 67.01 145.29 66.93 147.01 66.81 148.73 C 66.22 148.67 65.04 148.56 64.45 148.50 C 64.43 144.36 64.46 140.22 64.36 136.08 Z" />
</g>
<g id="#22cf00ff">
<path fill="#22cf00" opacity="1.00" d=" M 94.50 135.97 C 96.61 136.21 99.19 135.55 100.94 137.07 C 102.29 138.86 101.56 140.95 100.46 142.64 C 101.05 144.60 101.61 146.57 102.04 148.57 C 101.38 148.57 100.06 148.57 99.40 148.57 C 98.94 146.79 98.84 144.79 97.38 143.49 C 97.31 145.17 97.26 146.85 97.26 148.54 C 96.56 148.54 95.15 148.54 94.45 148.54 C 94.45 144.35 94.40 140.16 94.50 135.97 M 97.30 138.34 C 96.39 139.19 96.38 141.44 97.84 141.70 C 100.02 141.54 99.48 137.19 97.30 138.34 Z" />
<path fill="#22cf00" opacity="1.00" d=" M 210.77 136.03 C 213.25 136.00 215.74 136.00 218.23 136.03 C 218.34 137.73 217.58 138.95 215.75 138.88 C 215.72 142.12 215.74 145.35 215.73 148.58 C 215.13 148.59 213.93 148.60 213.33 148.61 C 213.24 145.34 213.25 142.07 213.24 138.81 C 211.29 139.06 210.80 137.68 210.77 136.03 Z" />
</g>
<g id="#24cf02ff">
<path fill="#24cf02" opacity="1.00" d=" M 109.83 148.52 C 110.14 144.29 110.39 140.06 110.76 135.85 C 111.46 135.94 112.87 136.12 113.57 136.21 C 114.10 138.81 114.69 141.40 115.31 143.98 C 115.70 141.31 116.01 138.61 116.91 136.06 C 117.60 136.06 118.98 136.06 119.67 136.06 C 119.76 140.18 120.23 144.27 120.22 148.39 C 116.39 149.63 118.20 144.00 117.54 141.82 C 116.70 144.05 117.12 147.22 114.96 148.68 C 113.14 147.03 113.32 144.18 112.45 142.01 C 112.35 144.20 112.29 146.39 112.26 148.58 C 111.65 148.57 110.43 148.53 109.83 148.52 Z" />
</g>
<g id="#24cb04ff">
<path fill="#24cb04" opacity="1.00" d=" M 128.08 148.62 C 128.90 144.39 129.81 140.17 130.79 135.97 C 131.55 135.98 133.09 136.00 133.85 136.01 C 134.59 140.24 135.68 144.42 136.03 148.71 C 135.45 148.66 134.29 148.55 133.71 148.49 C 133.34 147.12 133.27 145.09 131.28 145.84 C 131.08 146.53 130.68 147.91 130.49 148.60 C 129.88 148.60 128.68 148.61 128.08 148.62 M 132.26 140.30 C 131.17 140.96 130.67 142.75 131.50 143.80 C 133.37 144.69 134.11 140.43 132.26 140.30 Z" />
</g>
<g id="#24cf01ff">
<path fill="#24cf01" opacity="1.00" d=" M 142.72 135.98 C 145.17 135.99 147.62 136.00 150.07 136.10 C 149.96 137.72 149.43 139.01 147.53 138.81 C 147.56 142.04 147.58 145.27 147.55 148.51 C 146.94 148.56 145.73 148.66 145.12 148.71 C 144.96 145.35 144.95 141.99 145.02 138.64 C 144.43 138.60 143.25 138.52 142.67 138.48 C 142.68 137.86 142.70 136.61 142.72 135.98 Z" />
</g>
<g id="#23cf02ff">
<path fill="#23cf02" opacity="1.00" d=" M 158.00 135.94 C 158.66 135.99 159.96 136.09 160.62 136.15 C 160.52 140.26 160.59 144.38 160.49 148.49 C 159.90 148.55 158.72 148.66 158.13 148.72 C 157.92 144.46 157.99 140.20 158.00 135.94 Z" />
<path fill="#23cf02" opacity="1.00" d=" M 33.14 163.81 C 34.24 162.18 36.37 162.89 37.99 162.71 C 54.35 162.76 70.70 162.73 87.06 162.72 C 88.30 162.66 89.45 162.98 90.48 163.67 C 76.04 164.45 61.53 163.80 47.06 164.01 C 42.42 163.95 37.77 164.19 33.14 163.81 Z" />
</g>
<g id="#22d200ff">
<path fill="#22d200" opacity="1.00" d=" M 185.45 135.77 C 189.47 135.43 189.10 140.52 190.57 143.10 C 190.73 140.73 190.70 138.36 190.75 136.00 C 191.31 136.00 192.43 136.00 192.99 136.00 C 193.00 140.24 193.13 144.48 192.80 148.71 C 192.23 148.66 191.10 148.55 190.53 148.49 C 189.56 146.06 188.58 143.62 187.66 141.17 C 187.76 143.63 187.75 146.09 187.75 148.56 L 185.46 148.55 C 185.44 144.29 185.45 140.03 185.45 135.77 Z" />
</g>
<g id="#23cf00ff">
<path fill="#23cf00" opacity="1.00" d=" M 226.22 136.00 C 228.11 136.01 230.00 136.04 231.90 136.07 C 231.83 136.69 231.69 137.94 231.62 138.56 C 230.84 138.56 229.29 138.56 228.51 138.56 C 228.08 140.93 230.02 141.09 231.76 141.34 C 231.69 141.82 231.56 142.77 231.49 143.24 C 230.79 143.27 229.38 143.31 228.68 143.33 C 228.70 144.07 228.76 145.55 228.78 146.29 C 229.60 146.28 231.24 146.26 232.06 146.25 C 232.01 146.85 231.90 148.03 231.85 148.62 C 229.98 148.58 228.12 148.54 226.26 148.52 C 226.26 144.34 226.25 140.17 226.22 136.00 Z" />
<path fill="#23cf00" opacity="1.00" d=" M 271.48 135.74 C 275.38 135.67 275.05 140.60 276.61 143.19 C 276.51 140.78 276.43 138.37 276.40 135.96 C 276.99 135.99 278.19 136.04 278.78 136.07 C 278.75 140.24 278.74 144.40 278.73 148.57 C 278.16 148.57 277.02 148.58 276.46 148.58 C 275.57 146.38 274.74 144.15 273.77 141.99 C 273.73 144.19 273.74 146.38 273.71 148.58 L 271.52 148.54 C 271.40 144.28 271.43 140.01 271.48 135.74 Z" />
</g>
<g id="#27cf04ff">
<path fill="#27cf04" opacity="1.00" d=" M 241.65 147.39 C 237.89 143.49 240.34 134.56 246.71 135.94 C 246.68 136.51 246.61 137.63 246.58 138.19 C 242.19 138.00 242.09 143.23 243.80 146.06 C 244.56 146.11 246.09 146.23 246.85 146.29 C 246.74 146.89 246.52 148.09 246.41 148.69 C 244.80 148.42 242.79 148.84 241.65 147.39 Z" />
</g>
<g id="#24d005ff">
<path fill="#24d005" opacity="1.00" d=" M 254.99 135.94 C 255.66 135.99 257.00 136.09 257.66 136.13 C 257.62 137.79 257.58 139.45 257.56 141.11 C 258.11 141.05 259.22 140.92 259.77 140.86 C 259.74 139.23 259.71 137.62 259.69 136.00 C 260.33 136.00 261.62 136.00 262.27 136.00 C 262.27 140.23 262.26 144.46 262.34 148.69 C 258.72 149.42 259.89 145.75 259.65 143.50 C 259.12 143.51 258.07 143.52 257.54 143.53 C 257.56 145.25 257.57 146.97 257.57 148.70 C 256.93 148.60 255.66 148.41 255.03 148.32 C 254.88 144.19 255.04 140.07 254.99 135.94 Z" />
</g>
<g id="#28cf06ff">
<path fill="#28cf06" opacity="1.00" d=" M 290.09 136.17 C 295.63 134.63 296.09 142.36 294.82 145.91 C 294.27 149.08 289.52 149.59 288.20 146.73 C 286.80 143.38 286.62 138.30 290.09 136.17 M 291.81 146.71 C 292.64 143.93 292.91 140.89 291.83 138.14 C 289.08 139.91 289.45 144.66 291.81 146.71 Z" />
</g>
<g id="#22d003ff">
<path fill="#22d003" opacity="1.00" d=" M 303.73 136.00 C 304.44 136.00 305.85 136.00 306.56 136.00 C 306.57 139.42 306.57 142.84 306.54 146.26 C 307.30 146.26 308.81 146.26 309.57 146.27 L 309.53 148.51 C 307.60 148.53 305.68 148.55 303.77 148.57 C 303.69 144.38 303.72 140.19 303.73 136.00 Z" />
</g>
<g id="#26cd07ff">
<path fill="#26cd07" opacity="1.00" d=" M 319.36 136.36 C 321.03 135.30 323.32 136.21 324.06 138.00 C 325.19 140.51 325.01 143.51 324.22 146.10 C 323.79 148.25 321.28 149.00 319.38 148.51 C 315.86 145.72 315.73 139.09 319.36 136.36 M 320.09 146.46 C 323.19 145.10 322.28 140.50 321.08 138.04 C 318.58 140.08 319.75 143.73 320.09 146.46 Z" />
</g>
<g id="#22ce01ff">
<path fill="#22ce01" opacity="1.00" d=" M 347.60 135.97 C 348.37 136.00 349.92 136.07 350.69 136.10 C 351.04 137.69 351.40 139.28 351.73 140.88 C 352.20 139.24 352.64 137.60 353.10 135.96 C 353.79 136.01 355.17 136.10 355.86 136.15 C 354.16 140.15 352.66 144.28 352.75 148.70 C 352.19 148.65 351.06 148.54 350.50 148.49 C 351.01 144.05 348.98 140.04 347.60 135.97 Z" />
</g>
<g id="#fffdffff">
<path fill="#fffdff" opacity="1.00" d=" M 81.61 138.41 C 83.00 137.73 82.94 139.64 83.30 140.50 C 83.70 142.45 83.18 144.43 82.90 146.36 C 79.78 145.21 80.70 140.82 81.61 138.41 Z" />
</g>
<g id="#fbfffaff">
<path fill="#fbfffa" opacity="1.00" d=" M 97.30 138.34 C 99.48 137.19 100.02 141.54 97.84 141.70 C 96.38 141.44 96.39 139.19 97.30 138.34 Z" />
<path fill="#fbfffa" opacity="1.00" d=" M 172.22 139.07 C 172.65 137.28 173.93 138.74 174.10 139.77 C 174.55 141.93 174.09 144.13 173.80 146.28 C 170.81 145.46 171.59 141.36 172.22 139.07 Z" />
</g>
<g id="#fcfeffff">
<path fill="#fcfeff" opacity="1.00" d=" M 291.81 146.71 C 289.45 144.66 289.08 139.91 291.83 138.14 C 292.91 140.89 292.64 143.93 291.81 146.71 Z" />
</g>
<g id="#f9fefcff">
<path fill="#f9fefc" opacity="1.00" d=" M 320.09 146.46 C 319.75 143.73 318.58 140.08 321.08 138.04 C 322.28 140.50 323.19 145.10 320.09 146.46 Z" />
</g>
<g id="#7fe369ff">
<path fill="#7fe369" opacity="1.00" d=" M 132.26 140.30 C 134.11 140.43 133.37 144.69 131.50 143.80 C 130.67 142.75 131.17 140.96 132.26 140.30 Z" />
</g>
<g id="#020202ff">
<path fill="#020202" opacity="1.00" d=" M 95.63 158.63 C 96.89 155.86 100.82 157.77 103.22 157.41 C 102.58 158.62 101.23 158.73 100.05 158.99 C 98.96 161.37 100.31 165.96 96.84 166.32 C 97.24 163.79 97.70 161.28 98.20 158.78 C 97.56 158.74 96.27 158.66 95.63 158.63 Z" />
<path fill="#020202" opacity="1.00" d=" M 126.12 166.20 C 126.66 163.09 127.41 160.02 128.14 156.95 C 130.54 156.67 129.74 158.39 128.24 159.15 C 129.31 161.16 129.25 166.20 126.12 166.20 Z" />
<path fill="#020202" opacity="1.00" d=" M 177.14 166.25 C 177.62 163.10 178.41 160.00 179.16 156.91 C 181.73 156.90 180.56 158.16 179.27 159.25 C 180.26 161.25 180.31 166.19 177.14 166.25 Z" />
<path fill="#020202" opacity="1.00" d=" M 291.69 157.46 C 292.22 157.39 293.30 157.23 293.84 157.16 C 293.22 159.91 292.25 162.61 292.19 165.46 C 291.49 167.44 289.74 165.75 290.62 164.47 C 291.23 162.18 291.45 159.81 291.69 157.46 Z" />
<path fill="#020202" opacity="1.00" d=" M 140.78 161.89 C 141.82 159.37 144.73 159.19 147.02 159.74 C 146.08 162.82 146.89 167.89 142.88 168.73 C 141.59 169.14 140.50 168.43 139.71 167.49 C 141.02 167.32 142.33 167.16 143.64 167.02 C 143.20 164.75 144.56 162.81 145.18 160.74 C 141.84 160.76 142.23 164.22 143.24 166.34 C 141.01 166.20 139.45 163.84 140.78 161.89 Z" />
<path fill="#020202" opacity="1.00" d=" M 150.54 164.56 C 149.28 161.68 153.18 157.83 155.85 160.08 C 157.75 162.85 153.76 163.67 151.85 163.89 C 152.78 164.06 154.63 164.41 155.56 164.59 L 155.33 166.11 C 153.77 165.74 151.09 166.66 150.54 164.56 M 152.82 161.17 C 153.09 164.41 155.87 159.57 152.82 161.17 Z" />
<path fill="#020202" opacity="1.00" d=" M 168.08 165.87 C 166.80 163.84 167.94 161.21 168.90 159.27 C 171.05 160.32 169.16 163.15 169.57 164.95 C 172.56 165.03 170.90 158.24 173.94 160.02 C 173.69 162.00 173.28 163.97 172.94 165.94 C 171.32 165.89 169.70 165.94 168.08 165.87 Z" />
<path fill="#020202" opacity="1.00" d=" M 192.52 163.22 C 192.85 161.28 193.74 159.69 195.73 159.29 C 194.24 163.02 192.77 167.32 188.95 169.28 C 188.30 167.57 189.97 166.73 190.81 165.65 C 190.41 163.55 189.96 161.45 189.60 159.34 C 191.81 159.42 191.85 161.74 192.52 163.22 Z" />
<path fill="#020202" opacity="1.00" d=" M 242.52 164.56 C 241.28 161.64 245.22 157.81 247.88 160.12 C 249.32 161.81 246.87 164.45 245.17 162.83 C 245.48 161.97 246.09 161.30 247.01 160.82 C 244.38 160.19 244.34 162.94 244.18 164.77 C 245.01 164.69 246.65 164.52 247.47 164.43 L 247.36 166.10 C 245.78 165.78 243.13 166.65 242.52 164.56 Z" />
<path fill="#020202" opacity="1.00" d=" M 250.80 161.99 C 250.25 159.57 254.72 158.21 255.42 160.84 C 254.66 160.89 253.15 160.99 252.39 161.04 C 253.37 162.09 255.02 162.96 254.79 164.68 C 253.89 166.42 251.58 165.84 250.00 166.01 C 250.07 165.62 250.21 164.85 250.27 164.46 C 250.94 164.55 252.26 164.72 252.93 164.81 C 252.39 164.11 251.33 162.70 250.80 161.99 Z" />
<path fill="#020202" opacity="1.00" d=" M 267.33 159.79 C 268.69 159.76 270.05 159.66 271.41 159.53 C 269.71 161.31 268.54 163.43 267.78 165.75 C 267.37 165.88 266.56 166.13 266.15 166.26 C 266.50 164.09 266.88 161.94 267.33 159.79 Z" />
<path fill="#020202" opacity="1.00" d=" M 212.11 160.04 C 213.56 158.98 216.31 159.24 216.70 161.29 C 217.58 163.96 214.78 167.10 212.04 165.95 C 209.45 165.13 210.18 161.25 212.11 160.04 Z" />
</g>
<g id="#050505ff">
<path fill="#050505" opacity="1.00" d=" M 220.28 159.51 C 223.36 159.51 221.18 163.24 221.65 165.08 C 223.80 164.17 223.71 161.71 224.12 159.81 C 224.78 159.78 225.44 159.77 226.11 159.79 C 225.68 161.84 225.26 163.88 224.94 165.95 C 223.32 165.91 221.70 165.95 220.08 165.88 C 218.80 163.93 220.18 161.59 220.28 159.51 Z" />
<path fill="#050505" opacity="1.00" d=" M 273.61 159.69 C 274.07 159.69 274.97 159.69 275.42 159.69 C 275.56 160.59 275.84 162.40 275.98 163.30 C 277.00 161.65 277.83 159.80 279.82 159.15 C 278.76 161.67 278.09 166.06 274.81 166.10 C 274.20 164.01 273.92 161.84 273.61 159.69 Z" />
</g>
<g id="#25d004ff">
<path fill="#25d004" opacity="1.00" d=" M 298.92 162.70 C 315.29 162.75 331.66 162.74 348.03 162.72 C 350.74 162.78 353.59 162.30 356.14 163.47 C 352.82 164.26 349.40 164.00 346.04 164.01 C 330.33 164.00 314.63 164.01 298.92 164.01 L 298.92 162.70 Z" />
</g>
</svg>
